<svg height="32" width="32" xmlns="http://www.w3.org/2000/svg" viewBox="0 0 32 32">
<path d="M11 24.435l-3-.025V13h3v11.435zM9.385 11.193a1.816 1.816 0 01-1.808-1.808 1.78 1.78 0 011.808-1.808 1.808 1.808 0 110 3.616zM24 24h-3v-5c0-1.33-.047-3.3-1.909-3.3s-2.105 1.471-2.105 2.934L16.994 24H14V13h2.765v1.5h.066c.465-.931 1.618-1.529 3.346-1.529 3.117 0 3.823 2.061 3.823 5.119z"/><path d="M25 28H7a3 3 0 01-3-3V7a3 3 0 013-3h18a3 3 0 013 3v18a3 3 0 01-3 3zM7 6a1 1 0 00-1 1v18a1 1 0 001 1h18a1 1 0 001-1V7a1 1 0 00-1-1z"/>
</svg>